<svg width="30" height="52" viewBox="0 0 30 52" fill="none" xmlns="http://www.w3.org/2000/svg">
<path d="M29.055 40.8238L15.93 51.0898C15.6469 51.3118 15.3263 51.4286 15 51.4286C14.6737 51.4286 14.3531 51.3118 14.07 51.0898L0.945 40.8238C0.658024 40.5994 0.419476 40.2752 0.253523 39.884C0.0875683 39.4928 0.000106812 39.0485 0 38.5961L0 2.66507C0.000106812 2.21563 0.0864353 1.77411 0.250351 1.38468C0.414265 0.995245 0.650017 0.671559 0.934021 0.446004C1.21802 0.220449 1.54032 0.100934 1.86866 0.0994152C2.19701 0.0978966 27.8462 -0.123508 28.1313 0.0994152C28.4597 0.100934 28.782 0.220449 29.066 0.446004C29.35 0.671559 29.5857 0.995245 29.7497 1.38468C29.9136 1.77411 29.9999 2.21563 30 2.66507L30 38.5961C29.9999 39.0485 29.9124 39.4928 29.7465 39.884C29.5805 40.2752 29.342 40.5994 29.055 40.8238Z" fill="#D19004"/>
</svg>
