<svg width="22" height="23" viewBox="0 0 22 23" fill="none" xmlns="http://www.w3.org/2000/svg">
<path d="M20.8881 19.6219V16.5527C20.9002 16.0509 20.7317 15.5621 20.4146 15.1792C20.0975 14.7963 19.6538 14.546 19.1681 14.4759C18.208 14.3463 17.2653 14.1061 16.3581 13.7597C16.0001 13.6221 15.6112 13.5923 15.2372 13.6739C14.8632 13.7555 14.52 13.945 14.2481 14.2201L12.9781 15.5194C10.4745 14.063 8.40165 11.9423 6.9781 9.38105L8.24809 8.08177C8.51696 7.80361 8.70224 7.45243 8.782 7.06984C8.86176 6.68726 8.83264 6.2893 8.69809 5.92312C8.35954 4.99493 8.12472 4.03053 7.9981 3.04833C7.93017 2.5567 7.68983 2.10711 7.32186 1.78335C6.95389 1.4596 6.48341 1.28379 5.9981 1.28867H2.99811C2.72045 1.28894 2.44589 1.34835 2.1919 1.46313C1.93792 1.5779 1.71008 1.74552 1.52288 1.95532C1.33569 2.16512 1.19324 2.41249 1.10462 2.68169C1.01599 2.9509 0.983127 3.23603 1.00812 3.51894C1.33636 6.6812 2.38809 9.71989 4.07811 12.3888C5.61344 14.8607 7.66192 16.9564 10.0781 18.5272C12.6751 20.2502 15.6309 21.3259 18.7081 21.668C18.9854 21.6936 19.265 21.6597 19.5288 21.5684C19.7926 21.4771 20.0349 21.3305 20.2401 21.1379C20.4454 20.9453 20.609 20.7109 20.7206 20.4499C20.8321 20.1888 20.8892 19.9068 20.8881 19.6219Z" stroke="black" stroke-width="2" stroke-linecap="round" stroke-linejoin="round"/>
</svg>
