<svg width="20" height="20" viewBox="0 0 20 20" fill="none" xmlns="http://www.w3.org/2000/svg">
<path d="M10 19.7346C15.421 19.7346 20 15.2469 20 9.93396C20 4.62102 15.421 0.133301 10 0.133301C4.579 0.133301 0 4.62102 0 9.93396C0 15.2469 4.579 19.7346 10 19.7346ZM10 2.09343C14.337 2.09343 18 5.68341 18 9.93396C18 14.1845 14.337 17.7745 10 17.7745C5.663 17.7745 2 14.1845 2 9.93396C2 5.68341 5.663 2.09343 10 2.09343Z" fill="#686868"/>
<path d="M10 14.8342C10.901 14.8342 12.581 14.6696 13.707 13.568L12.293 12.1802C11.85 12.6144 10.992 12.8741 10 12.8741C8.374 12.8741 7 11.5275 7 9.93396C7 8.34039 8.374 6.9938 10 6.9938C10.993 6.9938 11.851 7.25351 12.293 7.6867L13.707 6.3009C12.582 5.19834 10.901 5.03369 10 5.03369C7.243 5.03369 5 7.23195 5 9.93396C5 12.636 7.243 14.8342 10 14.8342Z" fill="#686868"/>
</svg>
