<svg width="53" height="54" viewBox="0 0 53 54" fill="none" xmlns="http://www.w3.org/2000/svg">
    <g filter="url(#filter_ig_d)">
        <rect x="1" y="1" width="43" height="44" rx="14" stroke="black" stroke-width="2" shape-rendering="crispEdges" />
    </g>
    <path
        d="M27.25 13H17.75C15.1266 13 13 15.1266 13 17.75V27.25C13 29.8734 15.1266 32 17.75 32H27.25C29.8734 32 32 29.8734 32 27.25V17.75C32 15.1266 29.8734 13 27.25 13Z"
        stroke="black" stroke-width="2" stroke-linecap="round" stroke-linejoin="round" />
    <path
        d="M26.2999 21.9015C26.4171 22.6922 26.2821 23.4996 25.9139 24.2091C25.5458 24.9186 24.9634 25.4939 24.2494 25.8532C23.5355 26.2126 22.7264 26.3377 21.9373 26.2107C21.1481 26.0837 20.4191 25.7111 19.854 25.1459C19.2888 24.5808 18.9162 23.8518 18.7892 23.0626C18.6623 22.2735 18.7873 21.4644 19.1467 20.7505C19.506 20.0366 20.0813 19.4541 20.7908 19.086C21.5003 18.7178 22.3077 18.5828 23.0984 18.7C23.9048 18.8196 24.6515 19.1954 25.228 19.7719C25.8045 20.3484 26.1803 21.0951 26.2999 21.9015Z"
        stroke="black" stroke-width="2" stroke-linecap="round" stroke-linejoin="round" />
    <path d="M27.7249 17.275H27.7344" stroke="black" stroke-width="2" stroke-linecap="round" stroke-linejoin="round" />
    <defs>
        <filter id="filter_ig_d" x="0" y="0" width="53" height="54" filterUnits="userSpaceOnUse"
            color-interpolation-filters="sRGB">
            <feFlood flood-opacity="0" result="BackgroundImageFix" />
            <feColorMatrix in="SourceAlpha" type="matrix" values="0 0 0 0 0 0 0 0 0 0 0 0 0 0 0 0 0 0 127 0"
                result="hardAlpha" />
            <feOffset dx="4" dy="4" />
            <feGaussianBlur stdDeviation="2" />
            <feComposite in2="hardAlpha" operator="out" />
            <feColorMatrix type="matrix" values="0 0 0 0 0 0 0 0 0 0 0 0 0 0 0 0 0 0 0.25 0" />
            <feBlend mode="normal" in2="BackgroundImageFix" result="effect1_dropShadow" />
            <feBlend mode="normal" in="SourceGraphic" in2="effect1_dropShadow" result="shape" />
        </filter>
    </defs>
</svg>