<svg width="53" height="54" viewBox="0 0 53 54" fill="none" xmlns="http://www.w3.org/2000/svg">
    <g filter="url(#filter_linkedIn_d)">
        <rect x="1" y="1" width="43" height="44" rx="14" stroke="black" stroke-width="2" shape-rendering="crispEdges" />
    </g>
    <path
        d="M27.9 19.1C29.2527 19.1 30.5499 19.6373 31.5063 20.5937C32.4627 21.5502 33 22.8474 33 24.2V30.15H29.6V24.2C29.6 23.7491 29.4209 23.3167 29.1021 22.9979C28.7833 22.6791 28.3509 22.5 27.9 22.5C27.4492 22.5 27.0168 22.6791 26.698 22.9979C26.3792 23.3167 26.2 23.7491 26.2 24.2V30.15H22.8V24.2C22.8 22.8474 23.3374 21.5502 24.2938 20.5937C25.2502 19.6373 26.5474 19.1 27.9 19.1V19.1Z"
        stroke="black" stroke-width="2" stroke-linecap="round" stroke-linejoin="round" />
    <path d="M19.4 19.9501H16V30.1501H19.4V19.9501Z" stroke="black" stroke-width="2" stroke-linecap="round"
        stroke-linejoin="round" />
    <path
        d="M17.7 17.4C18.6389 17.4 19.4 16.6389 19.4 15.7C19.4 14.7611 18.6389 14 17.7 14C16.7611 14 16 14.7611 16 15.7C16 16.6389 16.7611 17.4 17.7 17.4Z"
        stroke="black" stroke-width="2" stroke-linecap="round" stroke-linejoin="round" />
    <defs>
        <filter id="filter_linkedIn_d" x="0" y="0" width="53" height="54" filterUnits="userSpaceOnUse"
            color-interpolation-filters="sRGB">
            <feFlood flood-opacity="0" result="BackgroundImageFix" />
            <feColorMatrix in="SourceAlpha" type="matrix" values="0 0 0 0 0 0 0 0 0 0 0 0 0 0 0 0 0 0 127 0"
                result="hardAlpha" />
            <feOffset dx="4" dy="4" />
            <feGaussianBlur stdDeviation="2" />
            <feComposite in2="hardAlpha" operator="out" />
            <feColorMatrix type="matrix" values="0 0 0 0 0 0 0 0 0 0 0 0 0 0 0 0 0 0 0.25 0" />
            <feBlend mode="normal" in2="BackgroundImageFix" result="effect1_dropShadow" />
            <feBlend mode="normal" in="SourceGraphic" in2="effect1_dropShadow" result="shape" />
        </filter>
    </defs>
</svg>