<svg width="616" height="400" viewBox="0 0 616 400" fill="none" xmlns="http://www.w3.org/2000/svg">
<g clip-path="url(#clip0)">
<path d="M616 187.799C616.001 203.713 609.995 219.041 599.184 230.718C588.372 242.396 573.552 249.563 557.685 250.787C557.15 250.827 556.607 250.868 556.065 250.892V190.933C556.065 190.334 555.932 189.742 555.674 189.201C555.416 188.66 555.04 188.184 554.575 187.807C554.521 187.751 554.461 187.702 554.396 187.661C554.337 187.613 554.275 187.57 554.21 187.531C553.641 187.165 552.989 186.947 552.314 186.898C551.639 186.848 550.963 186.969 550.347 187.248L549.674 185.774C550.409 185.439 551.207 185.265 552.015 185.263L505.881 145.52C506.237 145.115 506.61 144.718 506.983 144.322C515.68 135.153 526.927 128.804 539.27 126.094C551.613 123.384 564.486 124.438 576.224 129.119C587.962 133.8 598.027 141.894 605.117 152.354C612.208 162.815 615.999 175.161 616 187.799Z" fill="#F2F2F2"/>
<path d="M16.0186 230.875C15.7892 229.703 15.8195 228.495 16.1076 227.336C16.3956 226.177 16.9343 225.095 17.6857 224.166C18.437 223.238 19.3828 222.486 20.4565 221.962C21.5301 221.439 22.7054 221.157 23.8997 221.137L60.3161 177.787L69.4077 189.411L32.2942 229.756C32.1948 231.764 31.3621 233.666 29.9539 235.102C28.5457 236.537 26.6599 237.406 24.6537 237.545C22.6475 237.683 20.6604 237.08 19.0689 235.851C17.4774 234.622 16.3921 232.851 16.0186 230.875H16.0186Z" fill="#FFB8B8"/>
<path d="M188.948 177.519C188.693 177.888 188.467 178.276 188.273 178.68L148.51 184.364L142.472 176.698L129.712 184.298L141.707 202.999L190.202 188.703C191.481 189.862 193.084 190.603 194.795 190.829C196.506 191.055 198.246 190.754 199.782 189.967C201.319 189.18 202.579 187.944 203.396 186.423C204.213 184.903 204.547 183.169 204.355 181.454C204.162 179.739 203.452 178.122 202.319 176.82C201.186 175.518 199.683 174.592 198.01 174.165C196.338 173.738 194.575 173.83 192.956 174.429C191.337 175.028 189.939 176.106 188.948 177.519Z" fill="#FFB8B8"/>
<path d="M121.025 322.359L128.062 329.365L158.435 305.56L148.05 295.219L121.025 322.359Z" fill="#FFB8B8"/>
<path d="M135.127 349.411L113.012 327.392L121.52 318.847L135.09 332.359C136.212 333.476 137.103 334.804 137.712 336.265C138.321 337.727 138.636 339.294 138.64 340.877C138.643 342.461 138.335 344.029 137.732 345.494C137.129 346.958 136.244 348.289 135.127 349.411L135.127 349.411Z" fill="#2F2E41"/>
<path d="M83.6227 389.56H93.5525L98.2761 351.26H83.6211L83.6227 389.56Z" fill="#FFB8B8"/>
<path d="M112.702 398.779L81.495 398.78L81.4944 386.723L100.644 386.722C102.228 386.722 103.796 387.034 105.259 387.64C106.722 388.246 108.051 389.134 109.17 390.253C110.29 391.373 111.178 392.702 111.784 394.165C112.39 395.628 112.702 397.196 112.702 398.779Z" fill="#2F2E41"/>
<path d="M81.4642 359.979L70.1538 276.567C68.3837 263.961 68.9331 251.138 71.7747 238.73C74.0956 228.758 77.2312 221.851 81.0944 218.201C81.7041 217.629 82.4845 217.272 83.3162 217.186L120.659 213.296C121.379 213.223 122.104 213.355 122.751 213.678C123.398 214.002 123.939 214.502 124.312 215.122L125.54 217.167C125.689 217.416 125.809 217.68 125.898 217.956L133.794 242.432C133.911 242.802 134.102 243.144 134.353 243.44C134.604 243.736 134.912 243.978 135.258 244.154C147.689 250.5 188.069 271.924 185.758 281.168C183.587 289.853 163.259 303.935 157.08 308.043C156.451 308.464 155.71 308.686 154.953 308.68C154.196 308.674 153.458 308.441 152.836 308.011L142.579 300.994C142.079 300.651 141.667 300.194 141.38 299.66C141.092 299.125 140.936 298.53 140.926 297.924C140.915 297.317 141.05 296.716 141.319 296.173C141.587 295.629 141.983 295.157 142.471 294.797L149.544 289.586C149.977 289.267 150.314 288.835 150.521 288.339C150.727 287.842 150.793 287.299 150.714 286.767C150.634 286.235 150.411 285.735 150.068 285.321C149.726 284.907 149.276 284.593 148.769 284.415L110.784 271.087C110.358 270.938 109.903 270.888 109.454 270.941C109.005 270.995 108.574 271.151 108.195 271.397C107.816 271.643 107.499 271.973 107.267 272.361C107.035 272.75 106.896 273.186 106.859 273.636L99.8551 359.236C99.7778 360.153 99.3708 361.012 98.7092 361.653C98.0477 362.294 97.1764 362.673 96.2567 362.722L85.4202 363.263C85.3542 363.267 85.2888 363.268 85.2235 363.268C84.3038 363.272 83.4144 362.94 82.7222 362.334C82.0301 361.728 81.5827 360.891 81.4642 359.979Z" fill="#2F2E41"/>
<path d="M98.5906 144.236C109.577 144.236 118.484 135.33 118.484 124.343C118.484 113.357 109.577 104.451 98.5906 104.451C87.6041 104.451 78.6978 113.357 78.6978 124.343C78.6978 135.33 87.6041 144.236 98.5906 144.236Z" fill="#FFB8B8"/>
<path d="M79.9843 214.793L65.3413 161.366L65.5921 161.197C65.9065 160.985 97.4683 140.144 134.421 156.939L135.091 157.324L126.414 212.777C126.225 214.043 125.6 215.203 124.647 216.057C123.694 216.911 122.473 217.406 121.195 217.456L85.4902 218.829C85.4183 218.832 85.3465 218.833 85.2752 218.833C84.0716 218.836 82.9007 218.442 81.9441 217.711C80.9875 216.981 80.2986 215.955 79.9843 214.793Z" fill="#CCCCCC"/>
<path d="M64.7842 196.148L52.5888 182.124C52.0014 181.45 51.6707 180.591 51.6549 179.697C51.6391 178.803 51.9393 177.932 52.5026 177.238L65.2515 161.489L75.0383 164.159L80.2269 182.319L70.7663 195.834C70.4363 196.308 70.002 196.7 69.4967 196.981C68.9913 197.261 68.4285 197.421 67.8514 197.45C67.7832 197.453 67.7154 197.455 67.6475 197.455C67.1043 197.456 66.5673 197.34 66.0732 197.114C65.579 196.889 65.1393 196.559 64.7842 196.148Z" fill="#CCCCCC"/>
<path d="M132.223 193.227C131.646 193.198 131.083 193.038 130.578 192.757C130.073 192.477 129.638 192.085 129.308 191.611L119.848 178.095L124.398 158.979L133.409 156.521L135.091 157.324L147.572 173.015C148.135 173.709 148.436 174.58 148.42 175.474C148.404 176.367 148.073 177.227 147.486 177.901L135.291 191.925C134.935 192.336 134.496 192.665 134.002 192.891C133.507 193.116 132.97 193.233 132.427 193.232C132.36 193.232 132.291 193.23 132.223 193.227Z" fill="#CCCCCC"/>
<path d="M556.065 186.964C556.072 187.166 556.003 187.363 555.87 187.515C555.731 187.678 555.532 187.779 555.318 187.796C555.104 187.813 554.892 187.744 554.728 187.604L552.015 185.263L505.881 145.52L376.486 34.0334C375.748 33.4015 374.808 33.055 373.836 33.0564C372.864 33.0579 371.925 33.4074 371.189 34.0415L196.939 185.425L195.368 186.786C195.307 186.839 195.239 186.883 195.165 186.916C195.036 186.973 194.893 186.995 194.752 186.98C194.55 186.959 194.363 186.864 194.226 186.713C194.155 186.633 194.101 186.541 194.067 186.44C194.033 186.34 194.018 186.233 194.025 186.127C194.032 186.021 194.059 185.917 194.106 185.822C194.153 185.727 194.219 185.641 194.299 185.571L194.517 185.377L370.128 32.8185C371.16 31.9322 372.474 31.4436 373.834 31.4406C375.194 31.4377 376.511 31.9206 377.547 32.8023L506.983 144.321L555.781 186.373C555.866 186.447 555.936 186.537 555.984 186.639C556.033 186.741 556.061 186.852 556.065 186.964Z" fill="#3F3D56"/>
<path d="M457.682 210.882L455.552 205.018L448.214 184.769L432.404 141.171L414.731 92.4375L382.86 4.53583C382.234 2.82168 380.954 1.42537 379.301 0.652692C377.648 -0.119989 375.756 -0.206071 374.039 0.413295L189.771 67.2244C188.056 67.8495 186.66 69.129 185.887 70.7824C185.114 72.4358 185.028 74.3281 185.649 76.0445L230.835 200.66L231.604 202.79L279.034 224.286L292.366 230.328L294.528 231.308L350.973 256.894L353.16 256.1L390.182 242.679L446.027 222.431L453.551 219.702C455.267 219.077 456.665 217.798 457.439 216.145C458.213 214.492 458.301 212.599 457.682 210.882Z" fill="#E6E6E6"/>
<path d="M380.414 107.081C379.494 104.558 377.612 102.503 375.18 101.366C372.748 100.228 369.964 100.102 367.438 101.015L294.528 127.459L259.32 140.223C258.069 140.675 256.92 141.37 255.937 142.266C254.955 143.163 254.158 144.245 253.594 145.449C253.03 146.654 252.709 147.958 252.648 149.287C252.588 150.615 252.791 151.943 253.244 153.194C253.698 154.444 254.393 155.593 255.291 156.575C256.189 157.556 257.271 158.351 258.476 158.914C259.681 159.478 260.985 159.798 262.314 159.856C263.643 159.915 264.971 159.711 266.221 159.257L294.528 148.995L374.347 120.056C376.87 119.137 378.925 117.255 380.063 114.822C381.2 112.39 381.326 109.606 380.414 107.081Z" fill="white"/>
<path d="M393.251 142.491C392.332 139.968 390.45 137.913 388.018 136.776C385.585 135.639 382.801 135.512 380.276 136.425L367.924 140.904L294.528 167.518L272.158 175.625C269.635 176.542 267.58 178.423 266.443 180.855C265.306 183.286 265.182 186.07 266.096 188.593C267.011 191.117 268.89 193.174 271.32 194.313C273.751 195.452 276.534 195.579 279.058 194.667L294.528 189.054L387.185 155.458C387.395 155.385 387.598 155.296 387.8 155.207C390.153 154.175 392.025 152.287 393.037 149.926C394.049 147.564 394.126 144.907 393.251 142.491Z" fill="white"/>
<path d="M406.226 178.274C405.309 175.752 403.429 173.696 400.997 172.559C398.566 171.422 395.784 171.295 393.259 172.207L358.618 184.769L331.801 194.497L294.528 208.006L285.133 211.416C282.962 212.207 281.125 213.716 279.928 215.692C278.73 217.669 278.244 219.995 278.548 222.285C278.641 222.967 278.804 223.637 279.034 224.286L292.365 230.328L294.528 229.542H294.544L362.182 205.018L400.16 191.249C402.684 190.332 404.741 188.45 405.878 186.017C407.016 183.584 407.141 180.799 406.226 178.274H406.226Z" fill="white"/>
<path d="M330.311 72.2702C329.392 69.7474 327.51 67.6922 325.078 66.555C322.645 65.4178 319.861 65.2915 317.336 66.2038L275.462 81.3819C272.94 82.2987 270.884 84.1796 269.747 86.6112C268.611 89.0428 268.486 91.8262 269.401 94.3497C270.315 96.8732 272.194 98.9304 274.625 100.069C277.055 101.208 279.839 101.336 282.363 100.423L295.614 95.6204L304.385 92.4374L324.245 85.2372C326.767 84.3198 328.823 82.4392 329.96 80.0082C331.097 77.5772 331.224 74.7943 330.311 72.2702Z" fill="white"/>
<path d="M497.417 92.4374H301.413C300.256 92.4386 299.119 92.7308 298.106 93.287C297.092 93.8433 296.235 94.6458 295.614 95.6205C294.903 96.724 294.526 98.0092 294.528 99.3218V231.308L350.973 256.894L358.926 260.498L371.488 266.192C372.224 266.524 373.022 266.696 373.829 266.696C374.636 266.696 375.434 266.524 376.17 266.192L388.732 260.498L428.046 242.679L464.688 226.068L504.302 208.12V99.3218C504.3 97.4963 503.575 95.7459 502.284 94.4551C500.993 93.1643 499.243 92.4386 497.417 92.4374Z" fill="#FFBD06"/>
<path d="M456.92 184.769H341.909C339.294 184.771 336.781 185.785 334.897 187.598C333.012 189.411 331.903 191.884 331.801 194.497C331.788 194.628 331.782 194.761 331.785 194.894C331.789 197.577 332.857 200.15 334.754 202.048C336.652 203.946 339.225 205.014 341.909 205.018H456.92C459.605 205.018 462.18 203.951 464.079 202.052C465.978 200.154 467.044 197.579 467.044 194.894C467.044 192.208 465.978 189.633 464.079 187.735C462.18 185.836 459.605 184.769 456.92 184.769Z" fill="white"/>
<path d="M463.473 224.845C461.647 223.283 459.323 222.427 456.92 222.431H341.909C339.224 222.431 336.649 223.498 334.75 225.396C332.852 227.295 331.785 229.87 331.785 232.555C331.785 235.24 332.852 237.815 334.75 239.714C336.649 241.613 339.224 242.679 341.909 242.679H428.046L464.688 226.068C464.318 225.626 463.912 225.217 463.473 224.845Z" fill="white"/>
<path d="M358.926 260.498L371.488 266.192C372.224 266.524 373.022 266.696 373.829 266.696C374.636 266.696 375.434 266.524 376.17 266.192L388.732 260.498H358.926Z" fill="white"/>
<path d="M431.197 141.608C430.484 139.659 429.19 137.976 427.489 136.787C425.788 135.598 423.763 134.959 421.688 134.959H377.142C375.197 134.96 373.293 135.522 371.659 136.576C370.025 137.63 368.728 139.133 367.925 140.904C367.325 142.215 367.015 143.641 367.017 145.083C367.021 147.767 368.089 150.34 369.987 152.237C371.885 154.135 374.458 155.203 377.142 155.207H421.688C423.317 155.207 424.921 154.814 426.366 154.062C427.81 153.309 429.052 152.22 429.985 150.885C430.919 149.55 431.516 148.01 431.727 146.395C431.938 144.78 431.756 143.138 431.197 141.608Z" fill="white"/>
<path d="M424.118 242.679L384.803 260.498L375.497 264.718C374.973 264.954 374.404 265.076 373.829 265.076C373.254 265.076 372.685 264.954 372.16 264.718L362.854 260.498H358.926L371.488 266.192C372.224 266.524 373.022 266.696 373.829 266.696C374.636 266.696 375.434 266.524 376.17 266.192L388.732 260.498L428.046 242.679H424.118ZM424.118 242.679L384.803 260.498L375.497 264.718C374.973 264.954 374.404 265.076 373.829 265.076C373.254 265.076 372.685 264.954 372.16 264.718L362.854 260.498H358.926L371.488 266.192C372.224 266.524 373.022 266.696 373.829 266.696C374.636 266.696 375.434 266.524 376.17 266.192L388.732 260.498L428.046 242.679H424.118ZM424.118 242.679L384.803 260.498L375.497 264.718C374.973 264.954 374.404 265.076 373.829 265.076C373.254 265.076 372.685 264.954 372.16 264.718L362.854 260.498H358.926L371.488 266.192C372.224 266.524 373.022 266.696 373.829 266.696C374.636 266.696 375.434 266.524 376.17 266.192L388.732 260.498L428.046 242.679H424.118ZM556.065 186.964C555.766 186.667 555.437 186.401 555.085 186.171C554.289 185.655 553.376 185.348 552.43 185.279C551.484 185.209 550.537 185.38 549.674 185.774L463.473 224.845L424.118 242.679L384.803 260.498L375.497 264.718C374.973 264.954 374.404 265.076 373.829 265.076C373.254 265.076 372.685 264.954 372.16 264.718L362.854 260.498L353.159 256.1L294.544 229.542L294.528 229.534L278.548 222.285L230.835 200.66L197.984 185.774C197.65 185.619 197.299 185.502 196.939 185.426C196.146 185.227 195.318 185.211 194.517 185.377C193.236 185.639 192.085 186.335 191.257 187.347C190.429 188.359 189.976 189.626 189.973 190.933V394.331C189.975 395.834 190.573 397.275 191.636 398.338C192.699 399.401 194.14 399.998 195.643 400H552.015C553.518 399.998 554.959 399.401 556.022 398.338C557.085 397.275 557.683 395.834 557.685 394.331V190.933C557.687 189.449 557.105 188.023 556.065 186.964V186.964ZM556.065 394.33C556.064 395.404 555.637 396.434 554.878 397.194C554.119 397.953 553.089 398.38 552.015 398.38H195.643C194.569 398.38 193.539 397.953 192.78 397.194C192.02 396.434 191.594 395.404 191.593 394.33V190.933C191.594 190.256 191.763 189.59 192.087 188.996C192.411 188.402 192.879 187.898 193.448 187.531C193.848 187.275 194.289 187.089 194.752 186.981C194.888 186.951 195.026 186.929 195.165 186.916C195.323 186.893 195.483 186.882 195.643 186.883C196.219 186.884 196.788 187.008 197.311 187.248L231.604 202.79L279.034 224.286L292.365 230.328L294.528 231.308L350.973 256.894L358.926 260.498L371.488 266.192C372.224 266.524 373.022 266.696 373.829 266.696C374.636 266.696 375.434 266.524 376.17 266.192L388.732 260.498L428.046 242.679L464.688 226.068L550.346 187.248C550.963 186.969 551.639 186.848 552.314 186.898C552.989 186.947 553.641 187.165 554.21 187.531C554.275 187.57 554.337 187.613 554.396 187.661C554.461 187.703 554.521 187.751 554.574 187.807C555.04 188.184 555.416 188.66 555.674 189.201C555.932 189.742 556.065 190.334 556.065 190.933L556.065 394.33ZM424.118 242.679L384.803 260.498L375.497 264.718C374.973 264.954 374.404 265.076 373.829 265.076C373.254 265.076 372.685 264.954 372.16 264.718L362.854 260.498H358.926L371.488 266.192C372.224 266.524 373.022 266.696 373.829 266.696C374.636 266.696 375.434 266.524 376.17 266.192L388.732 260.498L428.046 242.679H424.118ZM424.118 242.679L384.803 260.498L375.497 264.718C374.973 264.954 374.404 265.076 373.829 265.076C373.254 265.076 372.685 264.954 372.16 264.718L362.854 260.498H358.926L371.488 266.192C372.224 266.524 373.022 266.696 373.829 266.696C374.636 266.696 375.434 266.524 376.17 266.192L388.732 260.498L428.046 242.679H424.118ZM292.365 230.328L294.528 231.308V229.542L292.365 230.328ZM424.118 242.679L384.803 260.498L375.497 264.718C374.973 264.954 374.404 265.076 373.829 265.076C373.254 265.076 372.685 264.954 372.16 264.718L362.854 260.498H358.926L371.488 266.192C372.224 266.524 373.022 266.696 373.829 266.696C374.636 266.696 375.434 266.524 376.17 266.192L388.732 260.498L428.046 242.679H424.118Z" fill="#3F3D56"/>
<path d="M142.165 400H50.642C50.4272 400 50.2211 399.915 50.0692 399.763C49.9174 399.611 49.832 399.405 49.832 399.19C49.832 398.975 49.9174 398.769 50.0692 398.617C50.2211 398.465 50.4272 398.38 50.642 398.38H142.165C142.38 398.38 142.586 398.465 142.738 398.617C142.889 398.769 142.975 398.975 142.975 399.19C142.975 399.405 142.889 399.611 142.738 399.763C142.586 399.915 142.38 400 142.165 400Z" fill="#3F3D56"/>
<path d="M91.0269 138.891C89.5326 138.133 88.2902 136.958 87.45 135.508C86.6097 134.059 86.2077 132.396 86.2925 130.723C86.3773 129.049 86.9453 127.437 87.9279 126.079C88.9104 124.722 90.2653 123.679 91.8285 123.075C97.8313 120.759 104.561 125.486 110.853 124.142C117.125 122.803 120.753 115.305 119.256 109.069C117.759 102.833 112.31 98.1361 106.302 95.8929C102.379 94.4316 98.1763 93.8713 94.0067 94.2535C89.837 94.6357 85.8067 95.9506 82.2139 98.1009C78.6582 100.314 75.6969 103.363 73.5874 106.981C71.4779 110.599 70.2841 114.678 70.1098 118.862C70.0281 123.051 71.0514 127.187 73.0767 130.854C75.1019 134.521 78.0576 137.59 81.6462 139.751C83.2454 140.673 85.107 141.413 86.9056 140.998C88.3823 140.518 89.7734 139.807 91.0269 138.891Z" fill="#2F2E41"/>
<path d="M84.5804 97.6161C79.2871 90.5953 72.1416 84.8276 63.8269 81.968C55.5122 79.1084 46.0106 79.338 38.2015 83.3791C30.3925 87.4202 24.5689 95.446 23.961 104.218C22.9493 118.816 35.4236 131.226 36.7038 145.803C37.1096 150.424 36.3596 155.073 34.5214 159.332C32.6832 163.59 29.8145 167.325 26.1738 170.199C22.533 173.073 18.2345 174.996 13.6654 175.795C9.09633 176.595 4.4002 176.245 0 174.777C3.13408 177.357 6.76779 179.261 10.6729 180.369C14.578 181.477 18.67 181.766 22.6921 181.217C26.7075 180.614 30.5385 179.126 33.9072 176.859C37.276 174.592 40.098 171.604 42.1688 168.112C44.9762 163.234 46.1291 157.568 46.5769 151.957C47.2802 143.087 46.3277 134.163 43.7682 125.64C42.369 120.99 40.4715 116.205 41.3588 111.431C41.8645 108.948 43.0888 106.668 44.8794 104.875C46.6701 103.081 48.9482 101.854 51.4307 101.344C55.4425 100.593 59.5444 101.817 63.3751 103.226C67.2059 104.635 71.0681 106.266 75.1487 106.359C79.2293 106.453 83.674 104.585 85.251 100.82L84.5804 97.6161Z" fill="#2F2E41"/>
</g>
<defs>
<clipPath id="clip0">
<rect width="616" height="400" fill="white"/>
</clipPath>
</defs>
</svg>
